<?xml version="1.0" encoding="UTF-8"?>
<!-- Generator: Adobe Illustrator 19.0.0, SVG Export Plug-In . SVG Version: 6.00 Build 0)  -->
<svg xmlns="http://www.w3.org/2000/svg" xmlns:xlink="http://www.w3.org/1999/xlink" version="1.1" id="Layer_1" x="0px" y="0px" viewBox="0 0 300 69.5" style="enable-background:new 0 0 300 69.5;" xml:space="preserve">
<style type="text/css">
	.st0{fill:#D4AF35;}
	.st1{fill:#010101;}
</style>
<g id="XMLID_59_">
	<path id="XMLID_58_" class="st0" d="M26,51.6c0,0.8-0.7,1.5-1.5,1.5c-0.8,0-1.5-0.7-1.5-1.5c0-0.8,0.7-1.5,1.5-1.5   C25.4,50.2,26,50.8,26,51.6"></path>
	<path id="XMLID_57_" class="st0" d="M29.7,51.5c0,0.8-0.7,1.5-1.5,1.5c-0.8,0-1.5-0.7-1.5-1.5c0-0.8,0.7-1.5,1.5-1.5   C29,50,29.7,50.6,29.7,51.5"></path>
	<path id="XMLID_56_" class="st0" d="M33.2,50.8c0,0.8-0.7,1.5-1.5,1.5c-0.8,0-1.5-0.7-1.5-1.5c0-0.8,0.7-1.5,1.5-1.5   C32.6,49.4,33.2,50,33.2,50.8"></path>
	<path id="XMLID_55_" class="st0" d="M36.5,49.8c0,0.8-0.7,1.5-1.5,1.5c-0.8,0-1.5-0.7-1.5-1.5c0-0.8,0.7-1.5,1.5-1.5   C35.9,48.3,36.5,49,36.5,49.8"></path>
	<path id="XMLID_54_" class="st0" d="M39.6,48.2c0,0.8-0.7,1.5-1.5,1.5c-0.8,0-1.5-0.7-1.5-1.5c0-0.8,0.7-1.5,1.5-1.5   C38.9,46.8,39.6,47.4,39.6,48.2"></path>
	<path id="XMLID_53_" class="st0" d="M42.3,46.2c0,0.8-0.7,1.5-1.5,1.5c-0.8,0-1.5-0.7-1.5-1.5c0-0.8,0.7-1.5,1.5-1.5   C41.7,44.7,42.3,45.4,42.3,46.2"></path>
	<path id="XMLID_52_" class="st0" d="M44.7,43.5c0,0.8-0.7,1.5-1.5,1.5c-0.8,0-1.5-0.7-1.5-1.5c0-0.8,0.7-1.5,1.5-1.5   C44.1,42.1,44.7,42.7,44.7,43.5"></path>
	<path id="XMLID_51_" class="st1" d="M88.3,22.8c-0.5-0.7-1.5-0.7-2,0c0,0-0.1,0.1-0.2,0.4c-0.4,1.1-0.4,2.4,0,3.5   c0.1,0.3,0.2,0.4,0.2,0.4c0.3,0.4,0.6,0.6,1,0.6s0.7-0.2,1-0.6c0-0.1,0.1-0.2,0.2-0.5c0.4-1,0.4-2.3,0-3.3   C88.4,22.9,88.4,22.8,88.3,22.8"></path>
	<path id="XMLID_50_" class="st1" d="M81.1,22.8c-0.5-0.7-1.5-0.7-2,0c0,0.1-0.1,0.2-0.2,0.4c-0.4,1.1-0.4,2.4,0,3.5   c0.1,0.3,0.2,0.4,0.2,0.4c0.3,0.4,0.6,0.6,1,0.6c0.4,0,0.7-0.2,1-0.6c0-0.1,0.1-0.2,0.2-0.5c0.4-1,0.4-2.3,0-3.3   C81.2,22.9,81.1,22.8,81.1,22.8"></path>
	<path id="XMLID_49_" class="st1" d="M105.5,27.7c-0.3-0.3-0.8-0.3-1.2-0.4c-2.6-0.2-5.2,0-7.7,0.5c-0.5,0.1-1,0.2-1.4,0.6   c-1,1,0.2,2.7,1.1,3.7c0.9,1,2.6,2.3,3.8,2.7c1.2,0.4,2.5-0.7,3.4-1.5c0.9-0.9,1.6-2,2.1-3.2C106,29.3,106.2,28.3,105.5,27.7"></path>
	<path id="XMLID_48_" class="st1" d="M26.3,22.8c-0.5-0.7-1.5-0.7-2,0c0,0.1-0.1,0.2-0.2,0.5c-0.4,1-0.4,2.3,0,3.3   c0.1,0.4,0.2,0.5,0.2,0.5c0.3,0.4,0.6,0.6,1,0.6c0.4,0,0.7-0.2,1-0.6c0-0.1,0.1-0.1,0.2-0.4c0.4-1.1,0.4-2.4,0-3.5   C26.4,22.9,26.4,22.8,26.3,22.8"></path>
	<path id="XMLID_47_" class="st1" d="M33.6,22.8c-0.5-0.7-1.5-0.7-2,0c0,0.1-0.1,0.2-0.2,0.5c-0.4,1-0.4,2.3,0,3.3   c0.1,0.4,0.2,0.5,0.2,0.5c0.3,0.4,0.6,0.6,1,0.6c0.4,0,0.7-0.2,1-0.6c0-0.1,0.1-0.2,0.2-0.4c0.4-1.1,0.4-2.4,0-3.5   C33.7,22.9,33.6,22.8,33.6,22.8"></path>
	<path id="XMLID_46_" class="st1" d="M16.1,27.9c-2.5-0.5-5.1-0.7-7.7-0.5c-0.4,0-0.9,0.1-1.2,0.4c-0.6,0.6-0.4,1.6-0.1,2.4   c0.5,1.2,1.2,2.3,2.1,3.2c0.9,0.9,2.2,1.9,3.4,1.5c1.2-0.4,2.9-1.7,3.8-2.7c0.9-1,2.1-2.7,1.1-3.7C17.1,28.1,16.6,28,16.1,27.9"></path>
	<path id="XMLID_108_" class="st1" d="M110,24.3c0-0.3-0.2-0.6-0.4-0.8c-0.2-0.2-0.6-0.3-0.9-0.2c-6.7,1-13.8-0.6-19.5-4.5   c1.7-0.9,3.7-2.2,3.6-3.7c0-0.6-0.4-1-0.9-1.3c-1.7-1-4.1-1.2-6.3-1.3c-0.6-2.8-1.5-5.5-3-8c-0.2-0.3-0.4-0.7-0.7-0.9   c-0.4-0.3-1-0.2-1.4-0.2C75.1,3.7,70,4.2,64.7,6.2C64,6.4,63.3,6.9,63,7.6c-0.2,0.4-0.2,0.9-0.1,1.4c0.1,2.5,0.3,4.9,0.4,7.4   c-1.7,0.8-3.3,1.7-4.4,2.9c-0.9,0.9-1.3,2.4-0.8,3.5c0.7,1.4,2.3,1.9,3.9,2c-2.2,3.3-4,6.7-5.6,10.3c0,0,0,0,0,0.1   c0,0.1,0.1,0.2,0.1,0.3c-0.1-0.1-0.1-0.3-0.2-0.4c-2.5-5.7-5.8-11.1-9.7-16c0.7-0.5,1.2-1.2,1.4-2c0.3-1.2,0-2.3-0.7-3.2   c-0.4-0.5-0.3-1.2,0.2-1.6c0.9-0.7,1.6-1.7,1.6-2.9c0.1-1.9-1.4-3.7-3.5-4.1c-2.2-0.5-4.8,1.2-6.7,2.9C38.5,8.2,38,8,37.5,8   c-0.4-0.1-0.8,0-1.2,0C35,5.8,33,3.5,30.8,3.3c-2.1-0.2-4.1,1.1-4.5,2.9c-0.3,1.2,0,2.3,0.7,3.2c0.4,0.5,0.3,1.2-0.2,1.6   c-0.9,0.7-1.6,1.7-1.6,2.9c0,1,0.3,1.9,1,2.7c-1,0.9-1.9,1.7-3,2.4c-1.9,1.2-3.9,2.2-6,3c-2.1,0.7-4.3,1.2-6.5,1.4   c-2.1,0.2-4.4,0.2-6.6-0.1c-0.3,0-0.6,0-0.9,0.2c-0.2,0.2-0.4,0.5-0.4,0.8c-0.3,2.6-0.5,6,0.3,9.3c0.9,3.6,2.8,6.4,5.4,8.1   c0.9,0.6,2,1.1,3.3,1.5c2.8,0.9,5.7,1.4,8.6,1.3c0,0,0,0.1,0,0.1c-0.2,3-0.3,6.1-0.5,9.2c-0.2,3-0.3,6.1-0.5,9.1   c0,0.4,0.2,0.8,0.5,1c2.1,1.4,4.5,1.8,6.9,1.8c2.5,0,4.9-0.5,7.1-1c2.7-0.7,9.4-2.7,13.1-7c0.2-0.3,0.9-0.5,1.3-0.5   c2.2,0.4,5.4-0.2,8.2-1.5c-0.1,0-0.2,0.1-0.3,0.1c2.7,1.2,5.8,1.7,7.9,1.3c0.4-0.1,1.1,0.2,1.3,0.5c3.7,4.3,10.4,6.3,13.1,7   c2.2,0.5,4.6,1,7.1,1c2.4,0,4.8-0.5,6.9-1.8c0.3-0.2,0.5-0.6,0.5-1c-0.2-3-0.3-6.1-0.5-9.1c-0.2-3-0.3-6.1-0.5-9.2c0,0,0-0.1,0-0.1   c2.9,0,5.9-0.4,8.6-1.3c1.4-0.5,2.4-0.9,3.3-1.5c2.6-1.7,4.5-4.6,5.4-8.1C110.4,30.4,110.2,27.1,110,24.3 M48.8,55.1   c-0.2,0-0.5,0-0.7,0c0.5-9.4-1.2-17.7-2.9-25.4c-0.1-0.6-0.8-1-1.4-0.9c-0.6,0.1-1,0.8-0.9,1.4c1.8,7.8,3.5,16.3,2.8,25.7   c0,0,0,0,0,0.1c-0.1,0.1-0.3,0.2-0.4,0.4c-1.1,1.3-4.5,4.4-11.9,6.3c-3.7,0.9-8.2,1.7-11.7-0.2c0.2-2.8,0.3-5.7,0.4-8.5   c0.2-3,0.3-6.1,0.5-9.1c0-0.1,0-0.3,0-0.4c4.4-0.4,8.8-1.9,12.4-4.4c0.5-0.4,0.7-1.1,0.3-1.6c-0.4-0.5-1.1-0.7-1.6-0.3   c-6.1,4.2-14.3,5.3-21.3,3c-1.2-0.4-2.1-0.8-2.8-1.3c-2.1-1.4-3.7-3.8-4.4-6.7c-0.6-2.5-0.6-5.2-0.4-7.4c2,0.2,4,0.2,5.9,0   c2.4-0.2,4.8-0.8,7.1-1.6c2.3-0.8,4.5-1.9,6.5-3.2c1.4-0.9,2.6-2,3.8-3c0.2,0.1,0.3,0.1,0.5,0.1c2.2,0.4,4.7-1.2,6.6-2.9   c0.4,0.1,0.7,0.3,1.1,0.3c0.5,0.1,1,0,1.4,0c1.4,2.2,3.4,4.5,5.6,4.7c0.3,0,0.6,0,0.9,0c4,4.9,7.3,10.2,9.9,16   c1.7,3.8,4,10.9,4.9,13.8c0.3,0.8-0.3,1.6-0.6,1.9C56.4,54.3,51.5,55.6,48.8,55.1 M57.3,55.6c-0.1,0.1-0.2,0.1-0.3,0.2   C57.1,55.7,57.2,55.6,57.3,55.6 M58.3,55c-0.1,0.1-0.2,0.1-0.3,0.2C58.1,55.1,58.2,55.1,58.3,55 M107.4,33.1   c-0.7,3-2.3,5.4-4.4,6.7c-0.8,0.5-1.7,0.9-2.8,1.3c-7,2.4-15.2,1.2-21.3-3c-0.5-0.4-1.2-0.2-1.6,0.3c-0.4,0.5-0.2,1.2,0.3,1.6   c3.7,2.5,8,4,12.4,4.4c0,0.1-0.1,0.3,0,0.4c0.2,3,0.3,6.1,0.5,9.1c0.1,2.8,0.3,5.6,0.4,8.5c-1.9,1-5,1.8-11.7,0.2   c-7.4-1.8-10.8-5-11.9-6.3c-0.1-0.1-0.2-0.3-0.4-0.4c0,0,0,0,0-0.1c-0.6-9.5,1-17.9,2.8-25.7c0.1-0.6-0.2-1.2-0.9-1.4   c-0.6-0.1-1.2,0.2-1.4,0.9c-1.8,7.7-3.4,16-2.9,25.4c-0.1,0-0.1,0-0.2,0c-0.2,0-0.4,0-0.5,0c-1.3,0.2-3.2,0-5-0.5   c-0.1,0.1-0.1,0.1-0.2,0.2c0.6-0.4,1.1-0.9,1.6-1.4c1.1-1.2,1.5-2.7,1.1-4.1c-0.9-2.8-2.4-7.5-3.9-11.2c0,0.1,0.1,0.2,0.1,0.3   c0.3-0.8,0.6-1.5,0.9-2.2c2.6-6,6.1-11.5,10.3-16.5c0.4,0,0.8-0.1,1.2-0.1c4.9-0.6,9.4-1.2,15.6-0.6c6.1,5.2,14.3,7.7,22.3,6.8   C108,28.1,108,30.6,107.4,33.1 M56.8,36.4c0,0.1,0.1,0.2,0.1,0.3C56.9,36.6,56.9,36.5,56.8,36.4 M57.1,37.2c0,0.1,0.1,0.2,0.1,0.3   C57.2,37.4,57.2,37.3,57.1,37.2"></path>
	<path id="XMLID_38_" class="st0" d="M100.1,52.7c-0.5-0.3-0.5-0.9-0.2-1.3c0.6-0.7,0.9-1.7,0.6-2.7c-0.4-1.5-2-2.6-3.8-2.4   c-1.8,0.1-3.5,2.1-4.6,3.9c-0.3,0-0.6,0-1,0c-0.4,0.1-0.8,0.2-1.1,0.4c-1.6-1.4-3.8-2.8-5.6-2.4c-1.7,0.4-3,1.8-2.9,3.4   c0,1,0.6,1.8,1.3,2.4c0.5,0.3,0.5,0.9,0.2,1.3c-0.6,0.7-0.9,1.7-0.6,2.7c0.4,1.5,2,2.6,3.8,2.4c1.9-0.2,3.5-2.1,4.7-3.9   c0.4,0.1,0.8,0.1,1.2,0c0.3,0,0.6-0.1,0.9-0.3c1.6,1.4,3.7,2.8,5.5,2.4c1.7-0.4,3-1.8,2.9-3.4C101.4,54,100.9,53.2,100.1,52.7"></path>
	<path id="XMLID_103_" class="st1" d="M131.6,22c0.1-0.2,0.2-0.5,0.3-0.7c0.6-1.3,1.5-1.9,2.6-1.9c0.4,0,0.8,0.1,1.1,0.2   c0.8,0.3,1.1,0.9,1.1,1.6c0,0.1,0,0.2,0,0.3c-0.2,0.6-0.5,0.9-1.2,0.9c-0.3,0-0.6-0.1-0.9-0.4c-0.4-0.4-0.8-0.5-1-0.5   c-0.5,0-1,0.3-1.4,0.9c1.2,1,1.7,2.3,1.8,3.9c0,1.2-0.3,2.2-1,3.2c-1.2,1.6-3,2.4-5.3,2.4l-3.4,0c-0.1,0-0.2,0-0.3,0   c-0.5,0.1-0.8,0.3-0.8,0.8c0,0.1,0,0.1,0,0.2c0.1,0.5,0.4,0.7,1,0.7l6.7,0.1c0.3,0,0.6,0,0.9,0.1c2.4,0.3,3.5,1.5,3.5,3.7   c0,0.6-0.2,1.1-0.5,1.6c-1,1.7-3.3,2.5-6.8,2.5c-1.5,0-2.7-0.2-3.7-0.6c-1.5-0.6-2.3-1.4-2.3-2.6c0-0.6,0.3-1.3,0.8-2   c-0.8-0.6-1.2-1.5-1.2-2.5c0-0.4,0.1-0.9,0.3-1.3c0.5-1.1,1.4-1.7,2.6-1.7h0c-0.3-0.2-0.6-0.4-0.9-0.6c-1.5-1.2-2.3-2.5-2.3-4.1   c0-1.1,0.3-2.1,1-3c1.2-1.6,3-2.4,5.5-2.4C129.3,21,130.6,21.4,131.6,22 M130.7,40.5c2-0.4,3-1.1,3-2.1c0-0.2,0-0.4-0.1-0.5   c-0.2-0.4-0.9-0.6-2.2-0.6l-6.5-0.1c-0.5,0-0.9-0.1-1.4-0.3c-0.3,0.5-0.5,0.9-0.5,1.4c0,0.2,0.1,0.5,0.2,0.7   c0.5,1.2,2.1,1.7,4.7,1.7C129,40.8,129.9,40.7,130.7,40.5 M125.7,29.6c0.3,1,0.9,1.5,2,1.5c0.6,0,1.1-0.2,1.5-0.5   c0.5-0.6,0.8-2,0.8-4.1c0-1.4-0.1-2.4-0.2-3c-0.3-1-1-1.5-2-1.5c-0.7,0-1.2,0.2-1.5,0.6c-0.5,0.6-0.7,1.9-0.7,4   C125.5,28,125.6,29,125.7,29.6"></path>
	<path id="XMLID_34_" class="st1" d="M145.4,34.6c0.3,0,0.4,0.3,0.4,0.8h-9v-0.8c0.6,0,1.1,0,1.4-0.1c0.7-0.2,1.1-0.7,1.1-1.6V15.3   h-2.5v-0.8h6.6v20.1h1.6C145.1,34.5,145.2,34.5,145.4,34.6"></path>
	<path id="XMLID_99_" class="st1" d="M155.6,32.8c-0.1,0.3-0.2,0.6-0.4,0.9c-0.9,1.4-2.2,2.1-4,2.1c-0.6,0-1.1-0.1-1.6-0.2   c-1.7-0.5-2.5-1.8-2.5-3.7c0-2.8,2.8-4.3,8.3-4.4v-2.1c0-0.6,0-1.2-0.1-1.6c-0.2-1.2-0.8-1.8-1.8-1.8c-0.3,0-0.6,0.1-0.8,0.2   c-0.4,0.2-0.7,0.8-0.9,1.6c-0.1,0.3-0.2,0.5-0.2,0.6c-0.3,0.9-0.9,1.4-1.9,1.4c-0.2,0-0.4,0-0.6-0.1c-0.8-0.2-1.2-0.7-1.2-1.6   c0-0.4,0.1-0.7,0.3-1c0.8-1.3,2.6-1.9,5.5-1.9c0.8,0,1.4,0.1,2.1,0.2c2.5,0.6,3.7,2.3,3.7,5V33c0,1,0.2,1.6,0.7,1.6   c0.6,0,1-0.8,1.1-2.3l0.8,0c-0.1,0.7-0.2,1.2-0.3,1.6c-0.4,1.1-1.4,1.7-2.9,1.7C157.1,35.6,156,34.6,155.6,32.8 M153.3,34.2   c0.9-0.3,1.6-1.3,2-2.8v-3.1c-1,0-1.8,0.2-2.4,0.4c-1.2,0.4-1.7,1.4-1.7,2.8c0,1.9,0.6,2.8,1.6,2.9C153,34.3,153.1,34.3,153.3,34.2   "></path>
	<path id="XMLID_31_" class="st1" d="M169.8,34.6c0.3,0,0.4,0.3,0.4,0.8h-7.3v-0.8c0.2,0,0.3,0,0.5,0c0.9-0.1,1.4-0.7,1.4-1.6V22.4   h-1.9v-0.8h5.7l0.2,2.4c0.9-1.9,2.4-2.8,4.5-2.8c0.3,0,0.7,0,1,0.1c1.3,0.4,2.2,1.3,2.7,2.9c1-2,2.6-3,4.7-3c0.8,0,1.4,0.2,2.1,0.6   c1.4,0.9,2.1,2.4,2.1,4.5v8.4h1.1c0.1,0,0.3,0,0.4,0c0.3,0,0.4,0.3,0.4,0.8h-7.3v-0.8c0.3,0,0.6,0,0.8-0.1c0.4-0.2,0.6-0.7,0.6-1.6   v-7.1c0-0.5-0.1-1-0.2-1.5c-0.3-1.1-1-1.6-1.9-1.6c-0.2,0-0.4,0-0.6,0.1c-1,0.4-1.6,1.5-1.7,3.3v0.2v8.2h0.5c0.1,0,0.3,0,0.4,0   c0.3,0,0.4,0.3,0.4,0.8h-6.8v-0.8c0.3,0,0.6,0,0.8-0.1c0.4-0.2,0.6-0.7,0.6-1.6v-7.1c0-0.6-0.1-1.1-0.2-1.6c-0.3-1-0.9-1.5-1.7-1.5   c-0.3,0-0.6,0.1-0.8,0.2c-1,0.5-1.5,1.6-1.7,3.3l0,8.3h0.6C169.5,34.5,169.6,34.5,169.8,34.6"></path>
	<path id="XMLID_95_" class="st1" d="M201.5,22.6c1.7,1.4,2.5,3.2,2.5,5.6c0,1.8-0.5,3.4-1.6,4.8c-1.4,1.8-3.4,2.7-6,2.7   c-1.8,0-3.4-0.6-4.8-1.7c-1.7-1.4-2.5-3.3-2.5-5.8c0-1.7,0.5-3.2,1.5-4.5c1.4-1.8,3.4-2.7,6.1-2.7C198.6,21,200.2,21.5,201.5,22.6    M194,32.8c0.4,1.4,1.2,2.1,2.6,2.1c0.8,0,1.4-0.2,1.8-0.7c0.8-0.8,1.2-2.8,1.2-5.9c0-2-0.1-3.4-0.4-4.3c-0.4-1.4-1.3-2.1-2.6-2.1   c-0.8,0-1.4,0.2-1.9,0.7c-0.7,0.8-1.1,2.8-1.1,5.8C193.6,30.4,193.7,31.9,194,32.8"></path>
	<path id="XMLID_28_" class="st1" d="M222.1,34.6c0.3,0.1,0.4,0.3,0.4,0.8h-5.7l-0.2-2.6c-0.1,0.1-0.1,0.3-0.2,0.4   c-1,1.7-2.5,2.6-4.4,2.6c-3,0-4.6-1.8-4.6-5.2v-8.1h-1.9v-0.8h6V31c0,0.3,0,0.6,0.1,0.9c0.2,1.4,0.9,2.2,2.2,2.2   c0.3,0,0.6-0.1,1-0.2c1.1-0.5,1.7-1.6,1.8-3.3l0-8.1h-1.6v-0.8h5.7v13h1.1C221.8,34.5,222,34.5,222.1,34.6"></path>
	<path id="XMLID_27_" class="st1" d="M232.4,34.6c0.3,0,0.4,0.3,0.4,0.8h-9.1v-0.8c0.3,0,0.5,0,0.7-0.1c0.8-0.1,1.1-0.7,1.1-1.6   V22.4h-1.9v-0.8h5.6l0.2,3c0.2-0.6,0.6-1.2,1-1.7c1-1.1,2.2-1.6,3.5-1.6c0.3,0,0.5,0,0.8,0.1c1.1,0.3,1.6,1,1.6,2   c0,0.3-0.1,0.6-0.2,0.9c-0.4,0.8-1,1.2-1.8,1.2c-0.3,0-0.5,0-0.7-0.1c-0.5-0.2-0.9-0.6-1.3-1.3c-0.3-0.5-0.5-0.7-0.8-0.7   c-0.1,0-0.3,0-0.4,0.1c-0.9,0.5-1.5,1.9-1.6,4.1v7h2.4C232.2,34.5,232.3,34.5,232.4,34.6"></path>
	<path id="XMLID_90_" class="st0" d="M238.6,15.5c0.8-0.1,1.7-0.1,2.6-0.2c0.9,0,1.7-0.1,2.6-0.1c0.9,0,1.8,0.1,2.8,0.3   c0.9,0.2,1.8,0.5,2.6,1c0.8,0.5,1.4,1.2,1.9,2.1c0.5,0.9,0.7,2.1,0.7,3.5s-0.2,2.6-0.7,3.5c-0.5,0.9-1.1,1.6-1.8,2.1   c-0.8,0.5-1.6,0.9-2.5,1s-1.8,0.3-2.7,0.3c-0.2,0-0.5,0-0.7,0c-0.2,0-0.4,0-0.6,0v6.3c-0.3,0.1-0.7,0.1-1,0.1c-0.3,0-0.7,0-1,0   c-0.3,0-0.6,0-1,0c-0.3,0-0.7-0.1-1.1-0.1V15.5z M242.6,25.7c0.2,0,0.4,0.1,0.6,0.1h0.7c0.5,0,0.9-0.1,1.3-0.2   c0.4-0.1,0.8-0.3,1.2-0.6c0.3-0.3,0.6-0.6,0.8-1.1c0.2-0.4,0.3-1,0.3-1.7c0-0.7-0.1-1.3-0.3-1.7c-0.2-0.5-0.5-0.8-0.8-1.1   c-0.3-0.3-0.7-0.5-1.2-0.6c-0.4-0.1-0.9-0.2-1.3-0.2c-0.2,0-0.4,0-0.6,0c-0.2,0-0.4,0-0.8,0.1V25.7z"></path>
	<path id="XMLID_24_" class="st0" d="M254.6,15.6h11.2c0.1,0.5,0.2,1.1,0.2,1.7c0,0.6-0.1,1.2-0.2,1.7h-7.2v4.3h5.7   c0.1,0.6,0.2,1.2,0.2,1.7c0,0.6-0.1,1.2-0.2,1.7h-5.7V32h7.4c0.1,0.5,0.2,1.1,0.2,1.7c0,0.6-0.1,1.2-0.2,1.7h-11.4V15.6z"></path>
	<path id="XMLID_23_" class="st0" d="M273.1,19h-4.9c-0.1-0.5-0.2-1.1-0.2-1.7c0-0.6,0.1-1.1,0.2-1.7H282c0.1,0.5,0.2,1.1,0.2,1.7   c0,0.6-0.1,1.2-0.2,1.7h-4.9v16.3c-0.3,0-0.7,0.1-1,0.1c-0.3,0-0.7,0-1,0c-0.3,0-0.6,0-1,0c-0.4,0-0.7-0.1-1.1-0.1V19z"></path>
	<path id="XMLID_22_" class="st0" d="M288.1,26.2c-0.6-0.2-1.2-0.5-1.7-0.8c-0.5-0.3-0.9-0.6-1.3-1c-0.3-0.4-0.6-0.9-0.8-1.4   c-0.2-0.5-0.3-1.2-0.3-2c0-0.9,0.2-1.8,0.5-2.5c0.3-0.7,0.8-1.3,1.4-1.8c0.6-0.5,1.3-0.9,2.1-1.1c0.8-0.2,1.7-0.4,2.8-0.4   c0.9,0,1.8,0.1,2.6,0.2c0.8,0.2,1.7,0.4,2.6,0.7c-0.1,1.1-0.4,2.1-0.9,3.1c-0.3-0.1-0.6-0.2-0.8-0.3c-0.3-0.1-0.6-0.2-0.9-0.3   c-0.3-0.1-0.7-0.1-1.1-0.2c-0.4,0-0.9-0.1-1.4-0.1c-0.3,0-0.6,0-0.9,0.1c-0.3,0.1-0.6,0.2-0.9,0.3c-0.3,0.1-0.5,0.4-0.6,0.6   c-0.2,0.3-0.2,0.7-0.2,1.1c0,0.4,0.1,0.7,0.2,0.9c0.1,0.2,0.3,0.5,0.5,0.6c0.2,0.2,0.5,0.3,0.7,0.4c0.3,0.1,0.5,0.2,0.8,0.3   l1.6,0.6c0.7,0.3,1.3,0.6,1.9,0.9c0.6,0.3,1,0.7,1.4,1.1c0.4,0.4,0.7,1,0.9,1.6c0.2,0.6,0.3,1.4,0.3,2.3c0,0.9-0.2,1.8-0.5,2.6   c-0.3,0.8-0.8,1.4-1.5,2c-0.6,0.5-1.4,1-2.4,1.3c-0.9,0.3-2,0.5-3.3,0.5c-0.6,0-1.1,0-1.6-0.1c-0.5,0-0.9-0.1-1.4-0.2   c-0.4-0.1-0.9-0.2-1.3-0.3c-0.4-0.1-0.9-0.3-1.3-0.5c0.1-0.5,0.2-1.1,0.3-1.7c0.1-0.6,0.3-1.2,0.5-1.7c0.8,0.3,1.5,0.5,2.2,0.7   c0.7,0.2,1.4,0.2,2.2,0.2c1.2,0,2.1-0.2,2.7-0.6c0.7-0.4,1-1.1,1-2c0-0.4-0.1-0.8-0.2-1.1c-0.2-0.3-0.4-0.5-0.6-0.7   c-0.2-0.2-0.5-0.4-0.8-0.5c-0.3-0.1-0.6-0.3-1-0.4L288.1,26.2z"></path>
	<path id="XMLID_21_" class="st1" d="M128.4,51.5v4.1h-1v-4c0-1.5-0.8-2.3-2.1-2.3c-1.5,0-2.5,0.9-2.5,2.6v3.7h-1v-10h1v4.2   c0.5-0.8,1.5-1.3,2.7-1.3C127.2,48.4,128.4,49.4,128.4,51.5"></path>
	<path id="XMLID_83_" class="st1" d="M134.5,52c0-2.1,1.5-3.6,3.6-3.6c2.1,0,3.6,1.5,3.6,3.6c0,2.1-1.5,3.6-3.6,3.6   C136,55.6,134.5,54.1,134.5,52 M140.8,52c0-1.7-1.1-2.8-2.6-2.8c-1.5,0-2.6,1.1-2.6,2.8c0,1.7,1.1,2.8,2.6,2.8   C139.6,54.8,140.8,53.7,140.8,52"></path>
	<path id="XMLID_18_" class="st1" d="M154.4,51.5v4.1h-1v-4c0-1.5-0.8-2.3-2.1-2.3c-1.5,0-2.5,0.9-2.5,2.6v3.7h-1v-7.1h0.9v1.3   c0.5-0.9,1.5-1.4,2.7-1.4C153.2,48.4,154.4,49.4,154.4,51.5"></path>
	<path id="XMLID_79_" class="st1" d="M167.8,45.5v10h-0.9v-1.4c-0.6,1-1.6,1.5-2.7,1.5c-2,0-3.5-1.5-3.5-3.6c0-2.1,1.5-3.6,3.5-3.6   c1.1,0,2.1,0.5,2.7,1.4v-4.3H167.8z M166.8,52c0-1.7-1.1-2.8-2.6-2.8c-1.5,0-2.6,1.1-2.6,2.8c0,1.7,1.1,2.8,2.6,2.8   C165.7,54.8,166.8,53.7,166.8,52"></path>
	<path id="XMLID_76_" class="st1" d="M180.9,52.3h-6c0.1,1.5,1.2,2.5,2.8,2.5c0.9,0,1.6-0.3,2.2-0.9l0.5,0.6   c-0.6,0.8-1.6,1.2-2.7,1.2c-2.2,0-3.7-1.5-3.7-3.6c0-2.1,1.5-3.6,3.5-3.6c2,0,3.4,1.5,3.4,3.6C180.9,52.1,180.9,52.2,180.9,52.3    M174.9,51.6h5c-0.1-1.4-1.1-2.4-2.5-2.4C176,49.2,175,50.2,174.9,51.6"></path>
	<path id="XMLID_13_" class="st1" d="M193.6,51.5v4.1h-1v-4c0-1.5-0.8-2.3-2.1-2.3c-1.5,0-2.5,0.9-2.5,2.6v3.7h-1v-7.1h0.9v1.3   c0.5-0.9,1.5-1.4,2.7-1.4C192.4,48.4,193.6,49.4,193.6,51.5"></path>
	<path id="XMLID_12_" class="st1" d="M204.1,55.1c-0.4,0.3-0.9,0.5-1.5,0.5c-1.3,0-2.1-0.8-2.1-2.1v-4.3h-1.3v-0.8h1.3v-1.6h1v1.6   h2.2v0.8h-2.2v4.2c0,0.8,0.4,1.3,1.2,1.3c0.4,0,0.8-0.1,1.1-0.4L204.1,55.1z"></path>
	<path id="XMLID_11_" class="st1" d="M213.7,48.4v0.9c-0.1,0-0.2,0-0.2,0c-1.5,0-2.4,0.9-2.4,2.6v3.6h-1v-7.1h0.9v1.4   C211.5,48.9,212.4,48.4,213.7,48.4"></path>
	<path id="XMLID_70_" class="st1" d="M219.4,46.2c0-0.4,0.3-0.7,0.7-0.7c0.4,0,0.7,0.3,0.7,0.7c0,0.4-0.3,0.7-0.7,0.7   C219.7,46.9,219.4,46.6,219.4,46.2 M219.6,48.5h1v7.1h-1V48.5z"></path>
	<path id="XMLID_8_" class="st1" d="M239.2,51.5v4.1h-1v-4c0-1.5-0.8-2.3-2-2.3c-1.5,0-2.4,0.9-2.4,2.6v3.7h-1v-4   c0-1.5-0.8-2.3-2.1-2.3c-1.4,0-2.4,0.9-2.4,2.6v3.7h-1v-7.1h0.9v1.3c0.5-0.9,1.4-1.4,2.6-1.4c1.2,0,2.1,0.5,2.5,1.5   c0.5-0.9,1.5-1.5,2.8-1.5C238.1,48.4,239.2,49.4,239.2,51.5"></path>
	<path id="XMLID_7_" class="st1" d="M245,54.8l0.4-0.8c0.6,0.4,1.5,0.8,2.5,0.8c1.4,0,1.9-0.5,1.9-1.2c0-1.9-4.6-0.4-4.6-3.2   c0-1.2,1-2,2.8-2c0.9,0,1.9,0.3,2.5,0.7l-0.4,0.8c-0.6-0.4-1.4-0.6-2.1-0.6c-1.3,0-1.9,0.5-1.9,1.2c0,1.9,4.6,0.5,4.6,3.2   c0,1.2-1.1,2-2.9,2C246.7,55.6,245.6,55.3,245,54.8"></path>
	<path id="XMLID_65_" class="st1" d="M262.2,51.2v4.4h-0.9v-1.1c-0.4,0.7-1.3,1.2-2.4,1.2c-1.6,0-2.6-0.8-2.6-2.1c0-1.1,0.7-2,2.7-2   h2.3v-0.4c0-1.2-0.7-1.9-2-1.9c-0.9,0-1.8,0.3-2.4,0.8l-0.4-0.7c0.7-0.6,1.8-1,2.9-1C261.2,48.4,262.2,49.3,262.2,51.2 M261.2,53.4   v-1.2H259c-1.4,0-1.8,0.5-1.8,1.3c0,0.8,0.7,1.3,1.8,1.3C260.1,54.9,260.9,54.4,261.2,53.4"></path>
	<rect id="XMLID_4_" x="269" y="45.5" class="st1" width="1" height="10"></rect>
	<path id="XMLID_61_" class="st1" d="M276.1,52c0-2.1,1.5-3.6,3.6-3.6s3.6,1.5,3.6,3.6c0,2.1-1.5,3.6-3.6,3.6S276.1,54.1,276.1,52    M282.4,52c0-1.7-1.1-2.8-2.6-2.8s-2.6,1.1-2.6,2.8c0,1.7,1.1,2.8,2.6,2.8S282.4,53.7,282.4,52"></path>
	<path id="XMLID_1_" class="st1" d="M296.1,51.5v4.1h-1v-4c0-1.5-0.8-2.3-2.1-2.3c-1.5,0-2.5,0.9-2.5,2.6v3.7h-1v-7.1h0.9v1.3   c0.5-0.9,1.5-1.4,2.7-1.4C294.9,48.4,296.1,49.4,296.1,51.5"></path>
</g>
</svg>
